<?xml version="1.0" encoding="UTF-8" standalone="no"?>
<!-- Created with Inkscape (http://www.inkscape.org/) -->

<svg
   xmlns:dc="http://purl.org/dc/elements/1.1/"
   xmlns:cc="http://creativecommons.org/ns#"
   xmlns:rdf="http://www.w3.org/1999/02/22-rdf-syntax-ns#"
   xmlns:svg="http://www.w3.org/2000/svg"
   xmlns="http://www.w3.org/2000/svg"
   xmlns:sodipodi="http://sodipodi.sourceforge.net/DTD/sodipodi-0.dtd"
   xmlns:inkscape="http://www.inkscape.org/namespaces/inkscape"
   version="1.1"
   id="svg176"
   width="2000"
   height="1280"
   viewBox="0 0 2000 1280"
   sodipodi:docname="Original.svg"
   inkscape:version="0.92.2 (5c3e80d, 2017-08-06)">
  <metadata
     id="metadata182">
    <rdf:RDF>
      <cc:Work
         rdf:about="">
        <dc:format>image/svg+xml</dc:format>
        <dc:type
           rdf:resource="http://purl.org/dc/dcmitype/StillImage" />
        <dc:title />
      </cc:Work>
    </rdf:RDF>
  </metadata>
  <defs
     id="defs180">
    <filter
       style="color-interpolation-filters:sRGB"
       inkscape:label="Blur"
       id="filter7582">
      <feGaussianBlur
         stdDeviation="2 2"
         result="blur"
         id="feGaussianBlur7580" />
    </filter>
    <filter
       style="color-interpolation-filters:sRGB"
       inkscape:label="Blur"
       id="filter7594">
      <feGaussianBlur
         stdDeviation="2 2"
         result="blur"
         id="feGaussianBlur7592" />
    </filter>
    <filter
       style="color-interpolation-filters:sRGB"
       inkscape:label="Blur"
       id="filter7590">
      <feGaussianBlur
         stdDeviation="2 2"
         result="blur"
         id="feGaussianBlur7588" />
    </filter>
    <filter
       style="color-interpolation-filters:sRGB"
       inkscape:label="Blur"
       id="filter7586">
      <feGaussianBlur
         stdDeviation="2 2"
         result="blur"
         id="feGaussianBlur7584" />
    </filter>
  </defs>
  <sodipodi:namedview
     pagecolor="#ffffff"
     bordercolor="#666666"
     borderopacity="1"
     objecttolerance="10"
     gridtolerance="10"
     guidetolerance="10"
     inkscape:pageopacity="0"
     inkscape:pageshadow="2"
     inkscape:window-width="1920"
     inkscape:window-height="1051"
     id="namedview178"
     showgrid="false"
     inkscape:zoom="0.36875"
     inkscape:cx="404.42778"
     inkscape:cy="1039.1639"
     inkscape:window-x="0"
     inkscape:window-y="0"
     inkscape:window-maximized="1"
     inkscape:current-layer="svg176" />
  <g
     id="g3875">
    <path
       style="fill:#fefefe;stroke-width:0.80000001"
       d="M 0,640 V 0 h 1000 1000 v 640 640 H 1000 0 Z"
       id="path3885"
       inkscape:connector-curvature="0" />
    <path
       style="fill:#ecb700;stroke-width:0.80000001"
       d="M 0,640 V 0 h 1000 1000 v 640 640 H 1000 0 Z m 1450.4,164 v -52.8 h -60 -60 v 52.8 52.8 h 60 60 z m 496,0 V 751.2 H 1812 1677.6 V 804 856.8 H 1812 1946.4 Z M 1263.2,504 V 466.4 H 1053.6 844 v 37.6 37.6 h 209.6 209.6 z M 101.6,252 V 23.2 H 68.8 36 V 252 480.8 h 32.8 32.8 z M 780,414.4 V 348 H 676 572 v 66.4 66.4 H 676 780 Z M 1946.4,100 V 31.2 h -209.6 -209.6 v 68.8 68.8 h 209.6 209.6 z"
       id="path3883"
       inkscape:connector-curvature="0" />
    <path
       style="fill:#004c98;stroke-width:0.80000001"
       d="M 0,640 V 0 h 1000 1000 v 640 640 H 1000 0 Z m 1946.4,479.2 v -152 h -160 -160 v 152 152 h 160 160 z M 780,910.4 V 692 H 566.4 352.8 v 218.4 218.4 H 566.4 780 Z m 483.2,-200 V 564 H 1112.8 962.4 v 146.4 146.4 h 150.4 150.4 z m 187.2,93.6 v -52.8 h -60 -60 v 52.8 52.8 h 60 60 z m 496,0 V 751.2 H 1812 1677.6 v 52.8 52.8 h 134.4 134.4 z m -240,-407.2 V 204 h -188 -188 v 192.8 192.8 h 188 188 z M 1263.2,504 V 466.4 H 1053.6 844 v 37.6 37.6 h 209.6 209.6 z M 101.6,252 V 23.2 H 68.8 36 V 252 480.8 h 32.8 32.8 z m 436.8,25.6 V 74.4 H 332.8 127.2 V 277.6 480.8 H 332.8 538.4 Z M 780,414.4 V 348 H 676 572 v 66.4 66.4 H 676 780 Z M 1946.4,100 V 31.2 h -209.6 -209.6 v 68.8 68.8 h 209.6 209.6 z"
       id="path3881"
       inkscape:connector-curvature="0" />
    <path
       style="fill:#c00101;stroke-width:0.80000001"
       d="M 0,640 V 0 h 1000 1000 v 640 640 H 1000 0 Z m 1584.8,479.2 v -152 h -145.6 -145.6 v 152 152 h 145.6 145.6 z m 361.6,0 v -152 h -160 -160 v 152 152 h 160 160 z M 780,1198.4 v -53.6 H 649.6 519.2 v 53.6 53.6 H 649.6 780 Z m -456,-180 v -216 H 196.8 69.6 v 216 216 H 196.8 324 Z m 456,-108 V 692 H 566.4 352.8 v 218.4 218.4 H 566.4 780 Z m 483.2,-200 V 564 H 1112.8 962.4 v 146.4 146.4 h 150.4 150.4 z m 187.2,93.6 v -52.8 h -60 -60 v 52.8 52.8 h 60 60 z m 496,0 V 751.2 H 1812 1677.6 v 52.8 52.8 h 134.4 134.4 z m 0,-148 v -40.8 h -308 -308 v 40.8 40.8 h 308 308 z M 780,610.4 V 567.2 H 570.4 360.8 v 43.2 43.2 H 570.4 780 Z M 1706.4,396.8 V 204 h -188 -188 v 192.8 192.8 h 188 188 z M 1263.2,504 V 466.4 H 1053.6 844 v 37.6 37.6 h 209.6 209.6 z M 101.6,252 V 23.2 H 68.8 36 V 252 480.8 h 32.8 32.8 z m 436.8,25.6 V 74.4 H 332.8 127.2 V 277.6 480.8 H 332.8 538.4 Z M 780,414.4 V 348 H 676 572 v 66.4 66.4 h 104 104 z m 0,-228.8 V 55.2 H 686.4 592.8 V 185.6 316 H 686.4 780 Z M 1466.4,100 V 13.6 h -68 -68 v 86.4 86.4 h 68 68 z m 480,0 V 31.2 h -209.6 -209.6 v 68.8 68.8 h 209.6 209.6 z"
       id="path3879"
       inkscape:connector-curvature="0" />
    <path
       style="fill:#000000;stroke-width:0.80000001"
       d="M 0,640 V 0 h 1000 1000 v 640 640 H 1630.8 1261.6 V 1123.6 967.2 H 1112 962.4 V 1123.6 1280 H 481.2 0 Z m 1584.8,479.2 v -152 h -145.6 -145.6 v 152 152 h 145.6 145.6 z m 361.6,0 v -152 h -160 -160 v 152 152 h 160 160 z M 780,1198.4 v -53.6 H 649.6 519.2 v 53.6 53.6 H 649.6 780 Z m -456,-180 v -216 H 196.8 69.6 v 216 216 H 196.8 324 Z m 456,-108 V 692 H 566.4 352.8 v 218.4 218.4 H 566.4 780 Z m 483.2,-200 V 564 H 1112.8 962.4 v 146.4 146.4 h 150.4 150.4 z m 187.2,93.6 v -52.8 h -60 -60 v 52.8 52.8 h 60 60 z m 182.4,0 v -52.8 h -65.6 -65.6 v 52.8 52.8 h 65.6 65.6 z m 313.6,0 V 751.2 H 1812 1677.6 V 804 856.8 H 1812 1946.4 Z M 271.2,664.8 V 567.2 H 170.4 69.6 v 97.6 97.6 H 170.4 271.2 Z M 1946.4,656 v -40.8 h -308 -308 v 40.8 40.8 h 308 308 z M 780,610.4 V 567.2 H 570.4 360.8 v 43.2 43.2 H 570.4 780 Z M 1706.4,396.8 V 204 h -188 -188 v 192.8 192.8 h 188 188 z M 1263.2,504 V 466.4 H 1053.6 844 v 37.6 37.6 h 209.6 209.6 z M 101.6,252 V 23.2 H 68.8 36 V 252 480.8 h 32.8 32.8 z m 436.8,25.6 V 74.4 H 332.8 127.2 V 277.6 480.8 H 332.8 538.4 Z M 780,414.4 V 348 H 676 572 v 66.4 66.4 H 676 780 Z M 1946.4,365.6 V 252 h -88 -88 v 113.6 113.6 h 88 88 z M 1196,260.4 V 79.2 H 1020 844 v 181.2 181.2 h 176 176 z M 780,185.6 V 55.2 H 686.4 592.8 V 185.6 316 H 686.4 780 Z M 1466.4,100 V 13.6 h -68 -68 v 86.4 86.4 h 68 68 z m 480,0 V 31.2 h -209.6 -209.6 v 68.8 68.8 h 209.6 209.6 z"
       id="path3877"
       inkscape:connector-curvature="0" />
  </g>
  <g
     inkscape:groupmode="layer"
     id="layer3"
     inkscape:label="Layer 1" />
  <g
     inkscape:groupmode="layer"
     id="layer4"
     inkscape:label="Layer 2">
    <rect
       style="fill:#000000;fill-opacity:1;stroke:none;stroke-width:7.55905533;stroke-miterlimit:4;stroke-dasharray:45.35433071, 45.35433071;stroke-dashoffset:0;stroke-opacity:1"
       id="rect10380"
       width="368.17493"
       height="320.23547"
       x="908.2724"
       y="557.23804" />
    <g
       id="g10539">
      <path
         inkscape:connector-curvature="0"
         id="path2996"
         d="m 1040.3046,624.89825 c -0.7095,0 -1.4125,0.0153 -2.1137,0.049 l 1.4663,22.21531 c 0.1724,-0.004 0.3468,-0.005 0.5202,-0.005 11.8048,0 21.3753,9.42053 21.3753,21.03949 0,3.29575 -0.7687,6.41706 -2.1414,9.19423 l 19.7596,10.23396 c 2.888,-5.81499 4.5152,-12.36836 4.5152,-19.30299 0,-23.98259 -19.4225,-43.42355 -43.3815,-43.42355 z m -3.3366,0.1252 c -0.039,0.003 -0.077,0.008 -0.1162,0.0109 l 0.01,0.0653 0.1384,-0.0762 c -0.01,7.3e-4 -0.019,-7.2e-4 -0.028,0 z m -34.8546,22.68345 c -3.31156,6.13345 -5.19026,13.15361 -5.19026,20.6149 0,23.98258 19.42256,43.42354 43.38146,43.42354 1.2152,0 2.4179,-0.0489 3.6078,-0.14699 l -1.4829,-22.47658 c -0.7401,0.0763 -1.4916,0.11431 -2.2521,0.11431 -11.8049,0 -21.3754,-9.42053 -21.3754,-21.03949 0,-3.78133 1.0144,-7.33056 2.7888,-10.39726 z"
         style="fill:#dedede;fill-opacity:1;stroke:none;stroke-width:0.24252018" />
      <g
         id="g7270"
         transform="matrix(0.1306135,0.05751992,-0.05751992,0.1306135,1068.9906,730.83878)">
        <circle
           r="54.066284"
           cy="550.36218"
           cx="524"
           id="circle8306"
           style="color:#000000;display:inline;overflow:visible;visibility:visible;opacity:1;fill:#ffffff;fill-opacity:1;fill-rule:nonzero;stroke:#ffffff;stroke-width:0.96379739;stroke-linejoin:miter;stroke-miterlimit:4;stroke-dasharray:none;stroke-dashoffset:0;stroke-opacity:1;marker:none;enable-background:accumulate" />
        <path
           style="color:#000000;display:inline;overflow:visible;visibility:visible;opacity:1;fill:#c00000;fill-opacity:1;fill-rule:nonzero;stroke:none;stroke-width:4.75142097;stroke-linejoin:miter;stroke-miterlimit:4;stroke-dasharray:none;stroke-dashoffset:0;stroke-opacity:1;marker:none;enable-background:accumulate"
           d="M 513.8418,176.91489 A 373.65318,373.65318 0 0 0 140.18945,550.56724 373.65318,373.65318 0 0 0 513.8418,924.21958 V 741.72544 A 191.87151,191.87151 0 0 1 332.12891,550.36216 191.87151,191.87151 0 0 1 513.8418,358.85044 Z"
           id="circle8373"
           inkscape:connector-curvature="0" />
        <path
           style="color:#000000;display:inline;overflow:visible;visibility:visible;opacity:1;fill:#0070c0;fill-opacity:1;fill-rule:nonzero;stroke:none;stroke-width:4.75142097;stroke-linejoin:miter;stroke-miterlimit:4;stroke-dasharray:none;stroke-dashoffset:0;stroke-opacity:1;marker:none;enable-background:accumulate"
           d="M 514.76758,394.05161 A 156.0855,156.0855 0 0 0 358.68359,550.13755 156.0855,156.0855 0 0 0 514.76758,706.22154 v -74.27149 a 82.154182,82.154182 0 0 1 -72.92188,-81.58789 82.154182,82.154182 0 0 1 72.92188,-81.5332 z"
           id="path8382"
           inkscape:connector-curvature="0" />
        <path
           style="color:#000000;display:inline;overflow:visible;visibility:visible;opacity:1;fill:#ffc000;fill-opacity:1;fill-rule:nonzero;stroke:none;stroke-width:4.75142097;stroke-linejoin:miter;stroke-miterlimit:4;stroke-dasharray:none;stroke-dashoffset:0;stroke-opacity:1;marker:none;enable-background:accumulate"
           d="M 531.56836,230.53013 V 391.40318 A 159.33853,159.33853 0 0 1 683.33789,550.36216 159.33853,159.33853 0 0 1 531.56836,709.43247 V 870.29966 A 319.88508,319.88508 0 0 0 851.45312,550.41489 319.88508,319.88508 0 0 0 531.56836,230.53013 Z"
           id="path8387"
           inkscape:connector-curvature="0" />
      </g>
      <text
         transform="rotate(-65.985783)"
         id="text7307"
         y="1233.7789"
         x="-311.13651"
         style="font-style:normal;font-weight:normal;font-size:13.02351665px;line-height:1.25;font-family:sans-serif;letter-spacing:-1.7907337px;word-spacing:0px;fill:#000000;fill-opacity:1;stroke:none;stroke-width:0.32558793"
         xml:space="preserve"><tspan
           style="font-style:normal;font-variant:normal;font-weight:normal;font-stretch:normal;font-size:39.93878555px;line-height:0.80000001;font-family:'URW Gothic';-inkscape-font-specification:'URW Gothic';fill:#ffc000;fill-opacity:1;stroke-width:0.32558793"
           y="1233.7789"
           x="-311.13651"
           id="tspan7305"
           sodipodi:role="line">20</tspan><tspan
           id="tspan7309"
           style="font-style:normal;font-variant:normal;font-weight:normal;font-stretch:normal;font-size:39.93878555px;line-height:0.80000001;font-family:'URW Gothic';-inkscape-font-specification:'URW Gothic';fill:#ffc000;fill-opacity:1;stroke-width:0.32558793"
           y="1265.73"
           x="-311.13651"
           sodipodi:role="line">11</tspan></text>
      <text
         transform="rotate(23.871604)"
         id="text7307-3"
         y="172.40825"
         x="1311.7432"
         style="font-style:normal;font-weight:normal;font-size:26.0376358px;line-height:1.25;font-family:sans-serif;letter-spacing:-3.58017492px;word-spacing:0px;fill:#000000;fill-opacity:1;stroke:none;stroke-width:0.65094084"
         xml:space="preserve"><tspan
           style="font-style:normal;font-variant:normal;font-weight:normal;font-stretch:normal;font-size:79.84875488px;line-height:0.80000001;font-family:'URW Gothic';-inkscape-font-specification:'URW Gothic';fill:#004d99;fill-opacity:1;stroke-width:0.65094084"
           y="172.40825"
           x="1311.7432"
           id="tspan7305-6"
           sodipodi:role="line">20</tspan><tspan
           id="tspan7309-7"
           style="font-style:normal;font-variant:normal;font-weight:normal;font-stretch:normal;font-size:79.84875488px;line-height:0.80000001;font-family:'URW Gothic';-inkscape-font-specification:'URW Gothic';fill:#004d99;fill-opacity:1;stroke-width:0.65094084"
           y="236.28725"
           x="1311.7432"
           sodipodi:role="line">17</tspan></text>
      <rect
         transform="rotate(-66.405359)"
         ry="0"
         rx="0"
         y="1285.5682"
         x="-247.91133"
         height="135.52945"
         width="135.52945"
         id="rect4099-6"
         style="fill:none;fill-opacity:1;fill-rule:evenodd;stroke:#004d99;stroke-width:4;stroke-miterlimit:4;stroke-dasharray:none;stroke-opacity:1"
         d="" />
      <rect
         transform="rotate(113.83799)"
         y="-1269.3572"
         x="257.71677"
         height="71.345375"
         width="71.345375"
         id="rect4101-2"
         style="fill:none;fill-opacity:1;stroke:#ffc000;stroke-width:4;stroke-opacity:1;stroke-miterlimit:4;stroke-dasharray:none"
         d="" />
      <rect
         transform="rotate(-66.170589)"
         y="1171.5413"
         x="-239.12659"
         height="99.461235"
         width="96.400887"
         id="rect4103-9"
         style="fill:none;stroke:#ffffff;stroke-width:4;stroke-opacity:1;stroke-miterlimit:4;stroke-dasharray:none"
         d="" />
      <rect
         transform="rotate(23.688614)"
         y="261.20367"
         x="1285.6233"
         height="114.78693"
         width="114.78693"
         id="rect4105-1"
         style="fill:none;fill-opacity:1;stroke:#c10202;stroke-width:4;stroke-miterlimit:4;stroke-dasharray:none;stroke-opacity:1"
         d="" />
    </g>
  </g>
</svg>
